General
-----------------------------------------------------------------
Format                                   : MPEG-4
Format profile                           : Base Media / Version 2
Codec ID                                 : mp42
File size                                : 217 MiB
Duration                                 : 45mn 20s
Overall bit rate mode                    : Variable
Overall bit rate                         : 669 Kbps

Video
-----------------------------------------------------------------
ID                                       : 1
Format                                   : AVC
Format/Info                              : Advanced Video Codec
Format profile                           : Baseline@L3.0
Format settings, CABAC                   : No
Format settings, ReFrames                : 1 frame
Codec ID                                 : avc1
Codec ID/Info                            : Advanced Video Coding
Duration                                 : 45mn 20s
Bit rate                                 : 571 Kbps
Maximum bit rate                         : 2 136 Kbps
Width                                    : 640 pixels
Height                                   : 360 pixels
Display aspect ratio                     : 16:9
Frame rate mode                          : Constant
Frame rate                               : 25.000 fps
Color space                              : YUV
Chroma subsampling                       : 4:2:0
Bit depth                                : 8 bits
Scan type                                : Progressive
Bits/(Pixel*Frame)                       : 0.099
Stream size                              : 185 MiB (85%)

Audio
-----------------------------------------------------------------
ID                                       : 2
Format                                   : AAC
Format/Info                              : Advanced Audio Codec
Format profile                           : LC
Codec ID                                 : 40
Duration                                 : 45mn 20s
Bit rate mode                            : Variable
Bit rate                                 : 96.0 Kbps
Maximum bit rate                         : 104 Kbps
Channel(s)                               : 2 channels
Channel positions                        : Front: L R
Sampling rate                            : 44.1 KHz
Compression mode                         : Lossy
Stream size                              : 31.1 MiB (14%)
-----------------------------------------------------------------

SCREENS
----------------------------------------------------------------- 
http://share.pho.to/2Sth1/original 
http://share.pho.to/2Sth2/original 
http://share.pho.to/2Sth3/original 
http://share.pho.to/2Sth4/original 
http://share.pho.to/2Sth5/original 
http://share.pho.to/2Sth6/original 
http://share.pho.to/2Sth7/original
-----------------------------------------------------------------

Enjoy ;)
